<svg width="495" height="495" viewBox="0 0 495 495" fill="none" xmlns="http://www.w3.org/2000/svg">
<path d="M100.367 257.291C90.79 253.747 90.7901 240.202 100.367 236.658L195.478 201.464C198.489 200.35 200.863 197.976 201.977 194.965L237.171 99.8544C240.715 90.2776 254.26 90.2776 257.804 99.8544L292.998 194.965C294.112 197.976 296.486 200.35 299.497 201.464L394.608 236.658C404.185 240.202 404.185 253.747 394.608 257.291L299.497 292.485C296.486 293.6 294.112 295.973 292.998 298.984L257.804 394.095C254.26 403.672 240.715 403.672 237.171 394.095L201.977 298.984C200.863 295.973 198.489 293.6 195.478 292.485L100.367 257.291Z" fill="white"/>
<path d="M229.494 322.605C193.168 339.309 155.666 301.807 172.37 265.481V265.481C177.621 254.06 177.621 240.915 172.37 229.494V229.494C155.666 193.168 193.168 155.666 229.494 172.37V172.37C240.915 177.621 254.06 177.621 265.481 172.37V172.37C301.807 155.666 339.308 193.168 322.605 229.494V229.494C317.354 240.915 317.354 254.06 322.605 265.481V265.481C339.308 301.807 301.807 339.308 265.481 322.605V322.605C254.06 317.354 240.915 317.354 229.494 322.605V322.605Z" fill="black"/>
</svg>
